<svg width="24" height="24" viewBox="0 0 24 24" fill="none" xmlns="http://www.w3.org/2000/svg">
<path d="M21.7959 5.20393L18.7959 2.20393C18.6914 2.09905 18.5672 2.01584 18.4305 1.95906C18.2937 1.90228 18.1471 1.87305 17.9991 1.87305C17.851 1.87305 17.7044 1.90228 17.5676 1.95906C17.4309 2.01584 17.3067 2.09905 17.2022 2.20393L8.20219 11.2039C7.99195 11.4154 7.87427 11.7017 7.875 11.9999V14.9999C7.875 15.2982 7.99353 15.5844 8.2045 15.7954C8.41548 16.0063 8.70163 16.1249 9 16.1249H12C12.1478 16.125 12.2941 16.096 12.4307 16.0395C12.5673 15.9831 12.6914 15.9002 12.7959 15.7958L21.7959 6.79581C21.9005 6.69133 21.9835 6.56725 22.0401 6.43068C22.0967 6.29411 22.1259 6.14771 22.1259 5.99987C22.1259 5.85203 22.0967 5.70564 22.0401 5.56906C21.9835 5.43249 21.9005 5.30842 21.7959 5.20393ZM18 4.59362L19.4062 5.99987L18.375 7.03112L16.9688 5.62487L18 4.59362ZM11.5312 13.8749H10.125V12.4686L15.375 7.21862L16.7812 8.62487L11.5312 13.8749ZM21.375 12.4283V19.4999C21.375 19.9972 21.1775 20.4741 20.8258 20.8257C20.4742 21.1773 19.9973 21.3749 19.5 21.3749H4.5C4.00272 21.3749 3.52581 21.1773 3.17417 20.8257C2.82254 20.4741 2.625 19.9972 2.625 19.4999V4.49987C2.625 4.00259 2.82254 3.52568 3.17417 3.17405C3.52581 2.82242 4.00272 2.62487 4.5 2.62487H11.5716C11.8699 2.62487 12.1561 2.7434 12.3671 2.95438C12.578 3.16535 12.6966 3.4515 12.6966 3.74987C12.6966 4.04824 12.578 4.33439 12.3671 4.54537C12.1561 4.75635 11.8699 4.87487 11.5716 4.87487H4.875V19.1249H19.125V12.4283C19.125 12.1299 19.2435 11.8438 19.4545 11.6328C19.6655 11.4218 19.9516 11.3033 20.25 11.3033C20.5484 11.3033 20.8345 11.4218 21.0455 11.6328C21.2565 11.8438 21.375 12.1299 21.375 12.4283Z" fill="#14121B"/>
</svg>
